<?xml version="1.0" standalone="no"?><!DOCTYPE svg PUBLIC "-//W3C//DTD SVG 1.1//EN" "http://www.w3.org/Graphics/SVG/1.1/DTD/svg11.dtd"><svg t="1582461762553" class="icon" viewBox="0 0 1024 1024" version="1.1" xmlns="http://www.w3.org/2000/svg" p-id="7912" width="48" height="48" xmlns:xlink="http://www.w3.org/1999/xlink"><defs><style type="text/css"></style></defs><path d="M906.922667 767.317333c-5.461333-0.682667-10.581333-3.413333-14.677334-7.509333-10.24-10.24-10.24-26.965333 0-37.205333 0 0 1.365333-1.365333 1.706667-1.365334 6.485333-5.12 16.042667-4.778667 22.186667 1.365334 6.485333 6.485333 6.485333 17.066667 0 23.552l-0.682667 0.682666c-7.509333 6.826667-18.773333 12.288-8.533333 20.48z" fill="#F4A5A0" p-id="7913"></path><path d="M886.442667 403.114667c48.469333 74.069333 72.021333 159.744 70.656 245.077333-51.2 35.498667-108.202667 59.050667-167.253334 69.973333-22.869333 4.437333-46.08 6.826667-69.632 7.509334l-0.341333 0.341333c-34.133333-38.229333-55.637333-113.664-21.162667-195.925333 3.413333-8.533333 7.850667-17.066667 12.629334-25.6 54.954667-98.304 154.965333-103.082667 173.397333-103.082667 0.682667 0.341333 1.365333 1.024 1.706667 1.706667z" fill="#FAC8C4" p-id="7914"></path><path d="M885.077333 401.066667c-18.432 0-118.784 4.778667-173.397333 103.082666-4.778667 8.533333-9.216 17.066667-12.629333 25.6-12.629333 29.696-17.749333 58.368-17.408 84.992 0.341333-25.258667 4.437333-52.906667 16.042666-81.237333 3.413333-8.533333 9.216-17.066667 13.994667-25.6 53.589333-95.914667 153.941333-102.741333 175.786667-103.082667l-2.389334-3.754666z" fill="#FFFFFF" p-id="7915"></path><path d="M812.714667 592.554667m-80.213334 0a80.213333 80.213333 0 1 0 160.426667 0 80.213333 80.213333 0 1 0-160.426667 0Z" fill="#F6A3B0" opacity=".3" p-id="7916"></path><path d="M838.656 582.656m-26.624 0a26.624 26.624 0 1 0 53.248 0 26.624 26.624 0 1 0-53.248 0Z" fill="#AA4B4B" p-id="7917"></path><path d="M838.656 582.656m-13.312 0a13.312 13.312 0 1 0 26.624 0 13.312 13.312 0 1 0-26.624 0Z" fill="#FFFFFF" p-id="7918"></path><path d="M360.789333 239.274667c-58.026667 127.317333-24.234667 250.197333-7.850666 288.426666-1.365333-2.048-2.389333-4.096-3.754667-6.144-36.864-66.901333-39.936-115.029333-71.338667-146.432-29.354667-29.354667-65.536-13.312-93.525333 9.557334-5.461333 4.096-10.922667 8.533333-16.384 13.994666-5.802667 5.802667-11.946667 12.288-17.749333 19.456l-0.682667 0.682667c-7.509333 8.874667-11.946667 15.018667-11.946667 15.018667C269.312 134.144 485.034667 41.984 567.978667 75.093333c-66.218667-16.384-160.085333 60.757333-206.848 162.816 0 0.682667-0.341333 1.024-0.341334 1.365334z" fill="#FAC0BB" p-id="7919"></path><path d="M560.469333 74.069333c2.730667 0.341333 5.12 0.682667 7.509334 1.365334-10.922667-4.437333-24.234667-6.485333-39.253334-6.485334 11.946667 0.341333 22.528 2.048 31.744 5.12zM180.565333 385.024c-5.461333 4.096-10.922667 8.533333-16.384 13.994667-5.802667 5.802667-11.946667 12.288-17.749333 19.456l-0.682667 0.682666c-1.024 1.365333-2.389333 2.730667-3.413333 3.754667l-5.12 11.264s4.437333-6.144 11.946667-15.018667c0-0.341333 0.341333-0.341333 0.682666-0.682666 5.802667-7.168 11.605333-13.653333 17.749334-19.456 5.461333-5.461333 10.922667-9.898667 16.384-13.994667 16.725333-13.312 36.181333-24.576 55.296-25.258667-20.138667-0.682667-40.96 10.922667-58.709334 25.258667zM357.376 238.250667c0 0.341333-0.341333 0.682667-0.341333 1.024-50.176 110.250667-31.744 216.405333-15.36 268.288 2.389333 4.778667 4.778667 9.216 7.509333 13.994666 1.024 2.048 2.389333 4.096 3.754667 6.144-16.384-38.570667-50.176-161.109333 7.850666-288.426666 0-0.341333 0.341333-0.682667 0.341334-1.024 41.984-91.818667 122.197333-163.498667 186.026666-164.864-64.512-1.365333-146.773333 71.338667-189.781333 164.864z" fill="#FFFFFF" p-id="7920"></path><path d="M733.525333 260.096c-75.434667 39.594667-103.424 104.789333-108.544 157.354667-82.602667 16.725333-154.965333 205.482667-6.826666 297.984 0.682667 0.341333 1.024 0.682667 1.706666 1.024-22.528-4.437333-44.714667-10.581333-65.536-19.114667-15.701333-6.485333-32.085333-14.677333-49.834666-25.6 0 0-0.341333-0.341333-0.682667-0.341333-16.725333-11.605333-31.402667-25.6-44.373333-40.618667 1.706667-10.24 5.802667-53.589333-45.397334-79.530667-44.714667-127.658667 4.437333-291.84 143.701334-345.429333 3.413333-1.365333 6.826667-2.730667 10.581333-3.754667 132.437333-44.032 308.565333 11.264 322.56 38.570667-20.138667-23.893333-100.352-9.557333-157.354667 19.456 0 0.341333 0 0.341333 0 0z" fill="#FAC0BB" p-id="7921"></path><path d="M126.976 454.656c1.365333-2.730667 2.730667-5.802667 4.096-8.533333 2.730667-4.437333 5.461333-8.533333 8.192-12.629334-49.493333 127.658667 102.058667 324.266667 272.042667 277.162667-8.874667 3.754667-18.090667 9.898667-26.624 20.138667-38.912 46.762667-38.912 15.701333-81.92 19.456-2.389333 0.341333-4.778667 0.682667-6.826667 1.024-136.533333 20.821333-219.818667-172.714667-168.96-296.618667z" fill="#F78C84" p-id="7922"></path><path d="M101.717333 522.922667c6.485333-23.210667 15.018667-46.08 25.6-68.266667-51.2 123.904 32.085333 317.44 168.96 296.618667-24.917333 6.485333-5.12 33.792-5.12 33.792s-93.525333 7.850667-144.384-35.157334c-41.984-34.816-81.237333-80.554667-45.056-226.986666z" fill="#F4A5A0" p-id="7923"></path><path d="M204.8 372.053333c-53.930667 47.104-23.210667 161.792 90.112 159.744 22.528-0.341333 42.325333 0.682667 59.050667 2.730667 1.024 0 2.048 0.341333 3.072 0.341333 3.072 0.341333 6.144 1.024 8.874666 1.365334 19.797333 3.413333 35.498667 8.874667 48.128 15.018666 51.2 25.941333 47.104 69.290667 45.397334 79.530667-0.341333 1.365333-0.341333 2.048-0.341334 2.048s-15.701333-23.552-31.061333-23.552c-1.024 0-2.048 0-3.072 0.341333-2.730667 0.341333-5.461333 1.365333-8.533333 2.730667-13.312 6.485333-24.917333 20.48-11.946667 20.48-187.392 15.018667-292.864-161.792-238.933333-231.082667 5.802667-5.802667 11.946667-11.605333 19.114666-17.066666C191.146667 379.904 197.973333 375.466667 204.8 372.053333z" fill="#F78C84" p-id="7924"></path><path d="M165.205333 402.090667c-53.930667 69.290667 51.541333 246.101333 238.933334 231.082666 25.941333-0.341333 43.008 11.605333 58.368 35.157334s11.605333 50.858667 11.605333 50.858666-31.061333-21.504-63.146667-8.533333c-169.984 47.445333-321.536-149.504-272.042666-277.162667 3.413333-5.12 7.168-9.898667 10.581333-14.336 0-0.341333 0.341333-0.341333 0.682667-0.682666 4.437333-4.778667 9.216-10.581333 15.018666-16.384z" fill="#F4A5A0" p-id="7925"></path><path d="M551.253333 205.824c2.048 0 4.437333 0.341333 6.485334 0.341333-139.264 53.589333-188.757333 217.770667-143.701334 345.429334-12.629333-6.144-28.330667-11.605333-48.128-15.018667-2.730667-0.682667-5.802667-1.024-8.874666-1.365333v-0.341334c-1.365333-2.389333-3.072-4.437333-4.437334-6.826666-16.384-38.570667-50.176-161.109333 7.850667-288.426667 35.157333-22.528 126.293333-37.205333 190.805333-33.792zM624.64 417.792c5.12-52.906667 33.109333-117.76 108.544-157.354667h0.341333c29.696 16.384 58.026667 36.864 83.968 61.098667 4.096 3.754667 7.850667 7.509333 11.946667 11.605333 21.162667 21.162667 39.936 44.032 55.637333 68.266667-18.432 0-118.784 4.778667-173.397333 103.082667-4.778667 8.533333-9.216 17.066667-12.629333 25.6-9.557333-1.365333-64.512-12.970667-73.045334-67.584-1.365333-7.850667-2.048-16.384-2.048-25.941334 0-6.144 0-12.288 0.682667-18.773333z" fill="#FAC8C4" p-id="7926"></path><path d="M884.736 400.725333c-39.936-2.389333-99.328 5.461333-151.552 55.978667-7.168 6.826667-13.653333 13.994667-19.456 21.162667-57.002667 68.949333-58.026667 147.456-36.522667 193.877333l0.341334-0.341333c4.437333 1.365333 8.874667 2.389333 13.653333 3.413333-13.312-39.594667-15.018667-90.794667 7.850667-145.066667 3.413333-8.533333 7.850667-17.066667 12.629333-25.6 54.954667-98.304 154.624-103.082667 173.056-103.424zM817.493333 321.194667c-25.941333-23.893333-53.930667-44.373333-83.626666-60.757334h-0.341334c-75.434667 39.594667-103.424 104.789333-108.544 157.354667-0.682667 6.485333-1.024 12.970667-1.024 18.773333 0 9.216 0.682667 18.090667 2.048 25.941334 3.754667 23.210667 15.701333 38.570667 28.672 48.469333-42.666667-33.450667-27.648-213.333333 162.816-189.781333z" fill="#F4A5A0" p-id="7927"></path><path d="M789.845333 718.165333s12.970667 27.648-14.677333 33.109334c-1.706667 0.341333-3.754667 0.341333-5.461333 0.682666-16.384 0.682667-34.133333-8.874667-49.493334-26.282666l0.341334-0.341334c22.869333-0.341333 46.08-2.730667 69.290666-7.168zM361.130667 238.250667c46.762667-102.058667 140.629333-179.2 206.848-162.816 71.68 27.648-17.066667 130.048-17.066667 130.048-64.512-3.413333-155.648 11.264-190.122667 33.792 0-0.341333 0.341333-0.682667 0.341334-1.024zM893.610667 246.442667c16.384 44.032-75.776 74.410667-75.776 74.410666l-0.341334 0.341334c-25.941333-23.893333-54.272-44.373333-83.968-61.098667 56.661333-29.354667 137.216-43.349333 157.013334-19.114667 1.365333 1.706667 2.389333 3.754667 3.072 5.461334z" fill="#F78C84" p-id="7928"></path><path d="M719.872 726.016c15.36 17.408 33.109333 26.965333 49.493333 26.282667-60.074667 6.485333-107.52-9.216-149.845333-35.498667-0.682667-0.341333-1.024-0.682667-1.706667-1.024-147.797333-92.501333-75.776-280.917333 6.826667-297.984-0.682667 6.485333-1.024 12.970667-1.024 18.773333 0 9.216 0.682667 18.090667 2.048 25.941334 8.533333 54.613333 63.829333 66.218667 73.045333 67.584-34.474667 82.261333-12.629333 157.696 21.162667 195.925333z" fill="#FAB7B2" p-id="7929"></path><path d="M719.872 726.016c-34.133333-38.229333-55.637333-113.664-21.162667-195.925333-9.557333-1.365333-64.512-12.970667-73.045333-67.584-1.365333-7.850667-2.048-16.384-2.048-25.941334 0-6.144 0.341333-12.288 1.024-18.773333 5.12-52.906667 33.109333-117.76 108.544-157.354667h0.341333c36.181333-18.432 81.92-31.061333 115.370667-31.402666-33.792-0.682667-81.578667 12.288-119.125333 31.402666s0 0-0.341334 0c-75.434667 39.594667-103.424 104.789333-108.544 157.354667-0.682667 6.485333-1.024 12.970667-1.024 18.773333 0 9.216 0.682667 18.090667 2.048 25.941334 8.533333 54.613333 63.829333 66.218667 73.045334 67.584-34.816 82.261333-12.970667 158.037333 21.162666 195.925333 15.36 17.408 33.109333 26.965333 49.493334 26.282667-7.509333 0.682667-14.677333 1.365333-21.845334 1.365333 8.192 0 16.725333-0.341333 25.258667-1.365333-16.042667 0.341333-33.792-9.216-49.152-26.282667z" fill="#FBF6F6" p-id="7930"></path><path d="M699.050667 529.749333c-34.816 82.261333-12.970667 158.037333 21.162666 195.925334l0.341334-0.341334c20.48-0.682667 40.618667-2.730667 61.098666-6.144-131.754667-70.656-91.136-164.181333-82.602666-189.44z" fill="#FAC8C4" p-id="7931"></path><path d="M474.794667 646.826667c4.096-15.018667 7.850667-81.237333-49.834667-100.010667-12.970667-5.461333-29.013333-9.216-49.152-11.264-2.730667-0.341333-5.802667-0.682667-8.874667-0.682667-1.024 0-2.048-0.341333-3.072-0.341333-4.437333-0.341333-9.216-0.341333-13.994666-0.341333 1.365333 0 2.730667 0.341333 4.096 0.341333 1.024 0 2.048 0.341333 3.072 0.341333 3.072 0.341333 6.144 1.024 8.874666 1.365334 19.797333 3.413333 35.498667 8.874667 48.128 15.018666 50.517333 25.6 47.445333 67.925333 45.397334 78.848 5.12 6.485333 10.581333 11.946667 15.36 16.725334zM360.789333 239.274667c-40.277333 88.746667-36.181333 175.104-24.576 232.448-20.138667-91.818667 13.653333-252.928 216.064-265.898667-93.866667-5.461333-176.128 20.821333-191.488 33.450667z" fill="#F4A5A0" p-id="7932"></path><path d="M564.224 217.429333c-3.413333 1.024-7.168 2.389333-10.581333 3.754667-8.192 3.072-15.701333 6.485333-23.210667 10.24 45.056-12.288 94.208-13.994667 139.605333-9.898667 18.773333-7.509333 38.229333-13.312 57.002667-18.090666-52.565333-5.12-110.933333-3.072-162.816 13.994666zM764.586667 210.261333c-18.773333 4.437333-37.888 10.24-56.32 17.408 10.581333 2.048 21.162667 4.096 30.72 6.485334 18.090667-7.168 37.205333-12.970667 54.954666-16.384 0.341333-0.341333 0.682667-0.341333 1.024-0.682667-9.216-2.389333-19.456-4.778667-30.378666-6.826667z" fill="#FFF0F5" p-id="7933"></path><path d="M145.408 773.461333c53.930667 80.896 116.053333 113.322667 175.445333 118.442667 53.589333 4.778667 104.789333-12.970667 145.749334-36.522667 65.877333-43.349333 69.632-61.44 106.837333-79.189333 39.936-19.114667 101.717333 7.168 95.573333 70.656-0.682667 6.144-1.706667 11.605333-3.072 16.384 7.850667-33.109333 1.365333-121.856-113.322666-23.893333-26.965333 23.210667-50.176 50.517333-88.064 65.877333-135.509333 55.296-271.36-36.181333-319.146667-131.754667 0 0.341333 0 0.341333 0 0z" fill="#FAC0BB" p-id="7934"></path><path d="M145.408 773.461333c90.112 130.048 226.645333 58.709333 264.533333 38.570667 52.224-27.989333 89.429333-3.413333 94.890667 0.682667-8.874667-4.437333-38.570667-16.384-69.632 8.533333-21.845333 17.408-55.637333 69.632-114.346667 70.656-59.392-5.12-121.173333-37.205333-175.445333-118.442667z" fill="#FAC0BB" p-id="7935"></path><path d="M466.602667 855.381333c-41.301333 23.552-92.501333 40.96-145.749334 36.522667 58.709333-1.024 92.842667-53.248 114.346667-70.656 31.061333-24.917333 60.757333-12.970667 69.632-8.533333 0.341333 0.341333 0.682667 0.341333 0.682667 0.341333-44.032-5.461333-38.912 42.325333-38.912 42.325333z" fill="#F78C84" p-id="7936"></path><path d="M145.408 773.802667c47.786667 95.232 183.296 187.050667 319.146667 131.754666 37.888-15.36 61.098667-43.008 88.064-65.877333 114.688-98.304 121.173333-9.557333 113.322666 23.893333-18.432 62.805333-103.082667 55.296-103.082666 55.296s35.157333-27.989333 31.744-46.08c-3.072-15.018667-17.749333-15.701333-25.6-4.778666-16.725333 22.528-78.848 109.909333-213.333334 81.237333-159.061333-33.792-208.554667-171.349333-210.261333-175.445333z" fill="#F78C84" p-id="7937"></path></svg>